<svg xmlns="http://www.w3.org/2000/svg" version="1.1" xmlns:xlink="http://www.w3.org/1999/xlink" width="200" height="200"><svg xmlns="http://www.w3.org/2000/svg" version="1.1" xmlns:xlink="http://www.w3.org/1999/xlink" viewBox="0 0 200 200"><rect width="200" height="200" fill="url('#gradient')"></rect><defs><linearGradient id="SvgjsLinearGradient1001" gradientTransform="rotate(49 0.5 0.5)"><stop offset="0%" stop-color="#620fde"></stop><stop offset="100%" stop-color="#073c4a"></stop></linearGradient></defs><g><g fill="#ffffff" transform="matrix(3.5049397121742514,0,0,3.5049397121742514,8.40058456286991,124.57134551122837)" stroke="#142247" stroke-width="1.5"><path d="M8.80-14.22L12.23-14.22L12.23-4.91Q12.23-3.33 11.55-2.17Q10.88-1.02 9.62-0.41Q8.36 0.20 6.64 0.20L6.64 0.20Q4.04 0.20 2.55-1.15Q1.05-2.50 1.03-4.84L1.03-4.84L1.03-14.22L4.47-14.22L4.47-4.78Q4.53-2.44 6.64-2.44L6.64-2.44Q7.71-2.44 8.25-3.03Q8.80-3.61 8.80-4.93L8.80-4.93L8.80-14.22ZM16.25-3.19L16.25-3.19Q17.03-3.19 17.55-2.73Q18.07-2.27 18.07-1.54Q18.07-0.82 17.55-0.36Q17.03 0.11 16.25 0.11L16.25 0.11Q15.46 0.11 14.95-0.36Q14.43-0.83 14.43-1.54Q14.43-2.26 14.95-2.72Q15.46-3.19 16.25-3.19ZM29.32 0L28.49-2.66L23.79-2.66L22.97 0L19.31 0L24.52-14.22L27.74-14.22L33.00 0L29.32 0ZM26.13-10.23L24.61-5.30L27.67-5.30L26.13-10.23ZM35.92-3.19L35.92-3.19Q36.70-3.19 37.22-2.73Q37.73-2.27 37.73-1.54Q37.73-0.82 37.22-0.36Q36.70 0.11 35.92 0.11L35.92 0.11Q35.13 0.11 34.61-0.36Q34.10-0.83 34.10-1.54Q34.10-2.26 34.61-2.72Q35.13-3.19 35.92-3.19ZM51.24-14.22L51.24-11.57L46.97-11.57L46.97 0L43.54 0L43.54-11.57L39.36-11.57L39.36-14.22L51.24-14.22Z"></path></g></g></svg><style>@media (prefers-color-scheme: light) { :root { filter: none; } }
@media (prefers-color-scheme: dark) { :root { filter: none; } }
</style></svg>